<?xml version="1.0" encoding="UTF-8" standalone="no"?>
<svg
   width="512"
   height="512"
   viewBox="0 0 64 64"
   version="1.1"
   id="svg486"
   sodipodi:docname="salmon-nigiri.svg"
   xml:space="preserve"
   inkscape:version="1.2.2 (b0a8486541, 2022-12-01)"
   xmlns:inkscape="http://www.inkscape.org/namespaces/inkscape"
   xmlns:sodipodi="http://sodipodi.sourceforge.net/DTD/sodipodi-0.dtd"
   xmlns="http://www.w3.org/2000/svg"
   xmlns:svg="http://www.w3.org/2000/svg"><defs
     id="defs490"><linearGradient
       id="Gradient_1"
       gradientUnits="userSpaceOnUse"
       x1="335.835"
       y1="339.954"
       x2="199.916"
       y2="530.662"><stop
         offset="0"
         stop-color="#D2BFAD"
         id="stop492" /><stop
         offset="0.481"
         stop-color="#CAC2BB"
         id="stop494" /><stop
         offset="1"
         stop-color="#CAC2BB"
         id="stop496" /></linearGradient><linearGradient
       id="Gradient_2"
       gradientUnits="userSpaceOnUse"
       x1="210.361"
       y1="372.585"
       x2="188.194"
       y2="403.688"><stop
         offset="0"
         stop-color="#D2BFAD"
         id="stop499" /><stop
         offset="0.481"
         stop-color="#CAC2BB"
         id="stop501" /><stop
         offset="1"
         stop-color="#CAC2BB"
         id="stop503" /></linearGradient><linearGradient
       id="Gradient_3"
       gradientUnits="userSpaceOnUse"
       x1="252.515"
       y1="383.29"
       x2="232.892"
       y2="410.824"><stop
         offset="0"
         stop-color="#D2BFAD"
         id="stop506" /><stop
         offset="0.481"
         stop-color="#CAC2BB"
         id="stop508" /><stop
         offset="1"
         stop-color="#CAC2BB"
         id="stop510" /></linearGradient><linearGradient
       id="Gradient_4"
       gradientUnits="userSpaceOnUse"
       x1="300.797"
       y1="417.562"
       x2="283.694"
       y2="441.56"><stop
         offset="0"
         stop-color="#D2BFAD"
         id="stop513" /><stop
         offset="0.481"
         stop-color="#CAC2BB"
         id="stop515" /><stop
         offset="1"
         stop-color="#CAC2BB"
         id="stop517" /></linearGradient><linearGradient
       id="Gradient_5"
       gradientUnits="userSpaceOnUse"
       x1="336.953"
       y1="420.542"
       x2="319.53"
       y2="444.988"><stop
         offset="0"
         stop-color="#D2BFAD"
         id="stop520" /><stop
         offset="0.481"
         stop-color="#CAC2BB"
         id="stop522" /><stop
         offset="1"
         stop-color="#CAC2BB"
         id="stop524" /></linearGradient><linearGradient
       id="Gradient_6"
       gradientUnits="userSpaceOnUse"
       x1="323.043"
       y1="231.895"
       x2="187.121"
       y2="422.607"><stop
         offset="0"
         stop-color="#D2BFAD"
         id="stop527" /><stop
         offset="0.481"
         stop-color="#CAC2BB"
         id="stop529" /><stop
         offset="1"
         stop-color="#CAC2BB"
         id="stop531" /></linearGradient><linearGradient
       id="Gradient_7"
       gradientUnits="userSpaceOnUse"
       x1="197.567"
       y1="264.531"
       x2="175.398"
       y2="295.637"><stop
         offset="0"
         stop-color="#D2BFAD"
         id="stop534" /><stop
         offset="0.481"
         stop-color="#CAC2BB"
         id="stop536" /><stop
         offset="1"
         stop-color="#CAC2BB"
         id="stop538" /></linearGradient><linearGradient
       id="Gradient_8"
       gradientUnits="userSpaceOnUse"
       x1="239.722"
       y1="275.235"
       x2="220.101"
       y2="302.765"><stop
         offset="0"
         stop-color="#D2BFAD"
         id="stop541" /><stop
         offset="0.481"
         stop-color="#CAC2BB"
         id="stop543" /><stop
         offset="1"
         stop-color="#CAC2BB"
         id="stop545" /></linearGradient><linearGradient
       id="Gradient_9"
       gradientUnits="userSpaceOnUse"
       x1="287.999"
       y1="309.507"
       x2="270.906"
       y2="333.49"><stop
         offset="0"
         stop-color="#D2BFAD"
         id="stop548" /><stop
         offset="0.481"
         stop-color="#CAC2BB"
         id="stop550" /><stop
         offset="1"
         stop-color="#CAC2BB"
         id="stop552" /></linearGradient><linearGradient
       id="Gradient_10"
       gradientUnits="userSpaceOnUse"
       x1="324.16"
       y1="312.489"
       x2="306.738"
       y2="336.935"><stop
         offset="0"
         stop-color="#D2BFAD"
         id="stop555" /><stop
         offset="0.481"
         stop-color="#CAC2BB"
         id="stop557" /><stop
         offset="1"
         stop-color="#CAC2BB"
         id="stop559" /></linearGradient><linearGradient
       id="Gradient_11"
       gradientUnits="userSpaceOnUse"
       x1="350.383"
       y1="191.852"
       x2="318.526"
       y2="279.458"><stop
         offset="0"
         stop-color="#E2794A"
         id="stop562" /><stop
         offset="1"
         stop-color="#D05A34"
         id="stop564" /></linearGradient><linearGradient
       id="Gradient_12"
       gradientUnits="userSpaceOnUse"
       x1="87.366"
       y1="184.79"
       x2="511.812"
       y2="392.791"><stop
         offset="0"
         stop-color="#A97866"
         id="stop567" /><stop
         offset="0.54"
         stop-color="#A15539"
         id="stop569" /><stop
         offset="1"
         stop-color="#AD595A"
         id="stop571" /></linearGradient><linearGradient
       id="Gradient_13"
       gradientUnits="userSpaceOnUse"
       x1="121.469"
       y1="191.472"
       x2="131.719"
       y2="191.472"><stop
         offset="0"
         stop-color="#EAA6A9"
         id="stop574" /><stop
         offset="0.996"
         stop-color="#C77D7A"
         id="stop576" /><stop
         offset="1"
         stop-color="#C77D7A"
         id="stop578" /></linearGradient><linearGradient
       id="Gradient_14"
       gradientUnits="userSpaceOnUse"
       x1="122.901"
       y1="228.666"
       x2="131.585"
       y2="228.666"><stop
         offset="0"
         stop-color="#A07E87"
         id="stop581" /><stop
         offset="0.996"
         stop-color="#9E564C"
         id="stop583" /><stop
         offset="1"
         stop-color="#9E564C"
         id="stop585" /></linearGradient><linearGradient
       id="Gradient_15"
       gradientUnits="userSpaceOnUse"
       x1="231.632"
       y1="184.374"
       x2="344.991"
       y2="184.374"><stop
         offset="0"
         stop-color="#EAA6A9"
         id="stop588" /><stop
         offset="0.996"
         stop-color="#C77D7A"
         id="stop590" /><stop
         offset="1"
         stop-color="#C77D7A"
         id="stop592" /></linearGradient><linearGradient
       id="Gradient_16"
       gradientUnits="userSpaceOnUse"
       x1="271.831"
       y1="178.688"
       x2="317.14"
       y2="178.688"><stop
         offset="0"
         stop-color="#EAA6A9"
         id="stop595" /><stop
         offset="0.996"
         stop-color="#C77D7A"
         id="stop597" /><stop
         offset="1"
         stop-color="#C77D7A"
         id="stop599" /></linearGradient><linearGradient
       id="Gradient_17"
       gradientUnits="userSpaceOnUse"
       x1="283.468"
       y1="165.543"
       x2="283.629"
       y2="165.543"><stop
         offset="0"
         stop-color="#EAA6A9"
         id="stop602" /><stop
         offset="0.996"
         stop-color="#C77D7A"
         id="stop604" /><stop
         offset="1"
         stop-color="#C77D7A"
         id="stop606" /></linearGradient><linearGradient
       id="Gradient_18"
       gradientUnits="userSpaceOnUse"
       x1="296.019"
       y1="221.151"
       x2="373.461"
       y2="221.151"><stop
         offset="0"
         stop-color="#EAA6A9"
         id="stop609" /><stop
         offset="0.996"
         stop-color="#C77D7A"
         id="stop611" /><stop
         offset="1"
         stop-color="#C77D7A"
         id="stop613" /></linearGradient><linearGradient
       id="Gradient_19"
       gradientUnits="userSpaceOnUse"
       x1="190.315"
       y1="189.127"
       x2="222.844"
       y2="189.127"><stop
         offset="0"
         stop-color="#EAA6A9"
         id="stop616" /><stop
         offset="0.996"
         stop-color="#C77D7A"
         id="stop618" /><stop
         offset="1"
         stop-color="#C77D7A"
         id="stop620" /></linearGradient><linearGradient
       id="Gradient_20"
       gradientUnits="userSpaceOnUse"
       x1="201.68"
       y1="236.949"
       x2="305.406"
       y2="236.949"><stop
         offset="0"
         stop-color="#A07E87"
         id="stop623" /><stop
         offset="0.996"
         stop-color="#9E564C"
         id="stop625" /><stop
         offset="1"
         stop-color="#9E564C"
         id="stop627" /></linearGradient><linearGradient
       id="Gradient_21"
       gradientUnits="userSpaceOnUse"
       x1="160.432"
       y1="189.517"
       x2="173.914"
       y2="189.517"><stop
         offset="0"
         stop-color="#EAA6A9"
         id="stop630" /><stop
         offset="0.996"
         stop-color="#C77D7A"
         id="stop632" /><stop
         offset="1"
         stop-color="#C77D7A"
         id="stop634" /></linearGradient><linearGradient
       id="Gradient_22"
       gradientUnits="userSpaceOnUse"
       x1="162.136"
       y1="233.044"
       x2="182.668"
       y2="233.044"><stop
         offset="0"
         stop-color="#A07E87"
         id="stop637" /><stop
         offset="0.996"
         stop-color="#9E564C"
         id="stop639" /><stop
         offset="1"
         stop-color="#9E564C"
         id="stop641" /></linearGradient><linearGradient
       id="Gradient_23"
       gradientUnits="userSpaceOnUse"
       x1="342.284"
       y1="303.248"
       x2="380.695"
       y2="303.248"><stop
         offset="0"
         stop-color="#A07E87"
         id="stop644" /><stop
         offset="0.996"
         stop-color="#9E564C"
         id="stop646" /><stop
         offset="1"
         stop-color="#9E564C"
         id="stop648" /></linearGradient><linearGradient
       id="Gradient_24"
       gradientUnits="userSpaceOnUse"
       x1="370.992"
       y1="292.422"
       x2="471.152"
       y2="292.422"><stop
         offset="0"
         stop-color="#EAA6A9"
         id="stop651" /><stop
         offset="0.996"
         stop-color="#C77D7A"
         id="stop653" /><stop
         offset="1"
         stop-color="#C77D7A"
         id="stop655" /></linearGradient><linearGradient
       id="Gradient_25"
       gradientUnits="userSpaceOnUse"
       x1="329.993"
       y1="249.244"
       x2="435.475"
       y2="249.244"><stop
         offset="0"
         stop-color="#EAA6A9"
         id="stop658" /><stop
         offset="0.996"
         stop-color="#C77D7A"
         id="stop660" /><stop
         offset="1"
         stop-color="#C77D7A"
         id="stop662" /></linearGradient><linearGradient
       id="Gradient_26"
       gradientUnits="userSpaceOnUse"
       x1="292.137"
       y1="271.318"
       x2="335.148"
       y2="271.318"><stop
         offset="0"
         stop-color="#A07E87"
         id="stop665" /><stop
         offset="0.996"
         stop-color="#9E564C"
         id="stop667" /><stop
         offset="1"
         stop-color="#9E564C"
         id="stop669" /></linearGradient><linearGradient
       id="Gradient_27"
       gradientUnits="userSpaceOnUse"
       x1="369.669"
       y1="299.763"
       x2="324.945"
       y2="402.08"><stop
         offset="0"
         stop-color="#E2794A"
         id="stop672" /><stop
         offset="1"
         stop-color="#D05A34"
         id="stop674" /></linearGradient><linearGradient
       id="Gradient_28"
       gradientUnits="userSpaceOnUse"
       x1="82.029"
       y1="290.857"
       x2="535.268"
       y2="512.967"><stop
         offset="0"
         stop-color="#AE8A6E"
         id="stop677" /><stop
         offset="0.54"
         stop-color="#A5663C"
         id="stop679" /><stop
         offset="1"
         stop-color="#B26A61"
         id="stop681" /></linearGradient><linearGradient
       id="Gradient_29"
       gradientUnits="userSpaceOnUse"
       x1="118.919"
       y1="294.828"
       x2="129.743"
       y2="294.828"><stop
         offset="0"
         stop-color="#F3BEB8"
         id="stop684" /><stop
         offset="0.996"
         stop-color="#CE9185"
         id="stop686" /><stop
         offset="1"
         stop-color="#CE9185"
         id="stop688" /></linearGradient><linearGradient
       id="Gradient_30"
       gradientUnits="userSpaceOnUse"
       x1="120.434"
       y1="336.998"
       x2="129.603"
       y2="336.998"><stop
         offset="0"
         stop-color="#A69193"
         id="stop691" /><stop
         offset="0.996"
         stop-color="#A46553"
         id="stop693" /><stop
         offset="1"
         stop-color="#A46553"
         id="stop695" /></linearGradient><linearGradient
       id="Gradient_31"
       gradientUnits="userSpaceOnUse"
       x1="235.227"
       y1="286.786"
       x2="354.906"
       y2="286.786"><stop
         offset="0"
         stop-color="#F3BEB8"
         id="stop698" /><stop
         offset="0.996"
         stop-color="#CE9185"
         id="stop700" /><stop
         offset="1"
         stop-color="#CE9185"
         id="stop702" /></linearGradient><linearGradient
       id="Gradient_32"
       gradientUnits="userSpaceOnUse"
       x1="277.667"
       y1="280.344"
       x2="325.507"
       y2="280.344"><stop
         offset="0"
         stop-color="#F3BEB8"
         id="stop705" /><stop
         offset="0.996"
         stop-color="#CE9185"
         id="stop707" /><stop
         offset="1"
         stop-color="#CE9185"
         id="stop709" /></linearGradient><linearGradient
       id="Gradient_33"
       gradientUnits="userSpaceOnUse"
       x1="289.957"
       y1="265.44"
       x2="290.126"
       y2="265.44"><stop
         offset="0"
         stop-color="#F3BEB8"
         id="stop712" /><stop
         offset="0.996"
         stop-color="#CE9185"
         id="stop714" /><stop
         offset="1"
         stop-color="#CE9185"
         id="stop716" /></linearGradient><linearGradient
       id="Gradient_34"
       gradientUnits="userSpaceOnUse"
       x1="303.211"
       y1="328.473"
       x2="384.964"
       y2="328.473"><stop
         offset="0"
         stop-color="#F3BEB8"
         id="stop719" /><stop
         offset="0.996"
         stop-color="#CE9185"
         id="stop721" /><stop
         offset="1"
         stop-color="#CE9185"
         id="stop723" /></linearGradient><linearGradient
       id="Gradient_35"
       gradientUnits="userSpaceOnUse"
       x1="191.601"
       y1="292.17"
       x2="225.945"
       y2="292.17"><stop
         offset="0"
         stop-color="#F3BEB8"
         id="stop726" /><stop
         offset="0.996"
         stop-color="#CE9185"
         id="stop728" /><stop
         offset="1"
         stop-color="#CE9185"
         id="stop730" /></linearGradient><linearGradient
       id="Gradient_36"
       gradientUnits="userSpaceOnUse"
       x1="203.6"
       y1="346.387"
       x2="313.119"
       y2="346.387"><stop
         offset="0"
         stop-color="#A69193"
         id="stop733" /><stop
         offset="0.996"
         stop-color="#A46553"
         id="stop735" /><stop
         offset="1"
         stop-color="#A46553"
         id="stop737" /></linearGradient><linearGradient
       id="Gradient_37"
       gradientUnits="userSpaceOnUse"
       x1="160.052"
       y1="292.613"
       x2="174.28"
       y2="292.613"><stop
         offset="0"
         stop-color="#F3BEB8"
         id="stop740" /><stop
         offset="0.996"
         stop-color="#CE9185"
         id="stop742" /><stop
         offset="1"
         stop-color="#CE9185"
         id="stop744" /></linearGradient><linearGradient
       id="Gradient_38"
       gradientUnits="userSpaceOnUse"
       x1="161.854"
       y1="341.962"
       x2="183.532"
       y2="341.962"><stop
         offset="0"
         stop-color="#A69193"
         id="stop747" /><stop
         offset="0.996"
         stop-color="#A46553"
         id="stop749" /><stop
         offset="1"
         stop-color="#A46553"
         id="stop751" /></linearGradient><linearGradient
       id="Gradient_39"
       gradientUnits="userSpaceOnUse"
       x1="352.05"
       y1="421.541"
       x2="392.6"
       y2="421.541"><stop
         offset="0"
         stop-color="#A69193"
         id="stop754" /><stop
         offset="0.996"
         stop-color="#A46553"
         id="stop756" /><stop
         offset="1"
         stop-color="#A46553"
         id="stop758" /></linearGradient><linearGradient
       id="Gradient_40"
       gradientUnits="userSpaceOnUse"
       x1="382.354"
       y1="409.271"
       x2="488.104"
       y2="409.271"><stop
         offset="0"
         stop-color="#F3BEB8"
         id="stop761" /><stop
         offset="0.996"
         stop-color="#CE9185"
         id="stop763" /><stop
         offset="1"
         stop-color="#CE9185"
         id="stop765" /></linearGradient><linearGradient
       id="Gradient_41"
       gradientUnits="userSpaceOnUse"
       x1="339.07"
       y1="360.316"
       x2="450.445"
       y2="360.316"><stop
         offset="0"
         stop-color="#F3BEB8"
         id="stop768" /><stop
         offset="0.996"
         stop-color="#CE9185"
         id="stop770" /><stop
         offset="1"
         stop-color="#CE9185"
         id="stop772" /></linearGradient><linearGradient
       id="Gradient_42"
       gradientUnits="userSpaceOnUse"
       x1="299.104"
       y1="385.344"
       x2="344.519"
       y2="385.344"><stop
         offset="0"
         stop-color="#A69193"
         id="stop775" /><stop
         offset="0.996"
         stop-color="#A46553"
         id="stop777" /><stop
         offset="1"
         stop-color="#A46553"
         id="stop779" /></linearGradient></defs><sodipodi:namedview
     id="namedview488"
     pagecolor="#ffffff"
     bordercolor="#999999"
     borderopacity="1"
     inkscape:showpageshadow="0"
     inkscape:pageopacity="0"
     inkscape:pagecheckerboard="0"
     inkscape:deskcolor="#d1d1d1"
     showgrid="false"
     inkscape:zoom="0.87971969"
     inkscape:cx="211.99935"
     inkscape:cy="296.68541"
     inkscape:window-width="1920"
     inkscape:window-height="1057"
     inkscape:window-x="0"
     inkscape:window-y="0"
     inkscape:window-maximized="1"
     inkscape:current-layer="svg486" /><g
     id="Layer_1"
     transform="matrix(0.125,0,0,0.125,-7.9035103,-9.0268002)"><path
       d="m 99.531,302.851 c 1.412,3.128 12.163,6.961 17.534,5.941 -1.441,6.11 7.805,3.396 11.349,2.538 0.022,8.353 0.514,9.675 7.453,10.793 -2.749,9.724 -4.394,16.945 -0.288,26.206 1.343,3.044 4.437,1.251 5.737,0.548 -0.716,9.914 -0.211,22.43 5.19,16.664 -3.445,5.935 -5.906,19.434 0.802,18.337 0,0 5.498,14.133 14.308,7.327 2.321,8.859 3.03,7.256 7.453,5.069 1.392,4.648 17.585,18.008 19.385,6.146 0.936,2.531 1.055,12.466 11.841,13.38 -0.851,8.599 12.009,12.066 23.597,9.549 1.736,5.4 17.451,6.623 23.189,0.161 -1.955,6.933 2.418,15.195 5.941,11.968 -0.696,8.184 3.453,15.644 14.787,13.64 5.983,7.798 6.785,8.754 14.372,4.493 1.342,8.171 13.302,10.997 20.763,7.531 0.66,7.755 18.414,5.329 26.487,-0.247 -2.088,9.465 5.779,12.903 15.166,7.208 0.309,9.794 9.401,5.329 17.015,4.942 0,0 -16.966,12.6 19.547,8.705 21.157,-2.25 17.558,-5.252 21.966,-9.26 0,0 7.354,8.887 18.935,1.765 0.703,6.905 14.457,21.277 20.686,12.473 7.017,2.609 10.364,2.679 14.751,-3.107 8.059,2.854 25.433,5.006 31.979,0.492 3.628,-2.503 0.942,-3.811 -1.02,-6.047 7.426,-2.138 9.872,1.659 14.731,-6.399 C 401.67,432.366 307.55,380.785 222.71,311.077 c -35.845,-7.446 -71.395,-15.694 -106.579,-25.861 -6.497,7.088 -9.823,10.61 -16.6,17.635 z"
       fill="url(#Gradient_1)"
       id="path784"
       style="fill:url(#Gradient_1)" /><path
       d="m 137.126,310.943 c -1.821,5.871 -0.956,11.496 5.935,6.729 2.34,7.481 -1.8,11.925 1.11,17.016 5.583,-3.101 2.953,-3.923 9.999,-3.312 0,0 -11.482,8.402 -7.257,15.631 5.569,9.541 9.83,-1.569 9.83,-1.569 0,0 -2.278,23.893 4.338,18.401 6.609,-5.498 8.114,-12.002 8.558,-14.969 2.531,9.19 3.923,11.686 9.407,13.254 -7.902,3.67 -14.477,4.978 -14.406,12.192 9.723,-2.883 13.977,-5.006 17.957,0.028 -3.938,8.142 -6.707,15.166 -1.934,19.645 4.768,4.486 9.387,-4.246 11.032,-8.339 -0.794,11.925 1.624,22.838 9.683,20.222 3.402,-9.991 4.303,-13.535 6.223,-15.244 0,0 2.453,12.045 4.738,13.339 2.278,1.286 9.802,-3.818 7.461,-11.644 0,0 1.602,5.273 5.09,9.513 -2.363,12.684 5.097,4.908 8.754,5.225 -2.383,10.061 0.429,13.738 8.979,12.719 2.763,-7.088 4.564,-7.045 8.859,-9.949 0.394,5.948 -2.974,14.835 3.706,16.699 5.716,-7.059 11.721,-6.42 17.191,-5.808 -0.084,8.909 -2.63,15.441 0.457,19.596 3.087,4.156 7.495,6.532 11.229,3.544 3.164,5.323 1.919,7.706 7.685,11.201 0,0 6.757,-8.972 10.483,-10.217 0,0 -3.937,-7.657 -2.804,-11.819 6.911,4.647 13.408,10.434 19.652,10.272 -7.805,6.729 -9.57,12.094 -6.934,14.408 2.637,2.306 14.19,1.997 21.432,-3.586 7.249,-5.583 11.088,-12.284 11.088,-12.284 0,0 5.225,-11.44 -7.812,-12.734 -5.568,-0.555 -9.632,-6.187 -15.257,-9 -5.639,-2.812 -17.212,-5.554 -19.618,-5.519 -2.418,0.042 -11.059,-15.286 -15.778,-9.921 -4.711,5.372 -8.915,-6.497 -13.043,-6.511 -4.127,-0.014 -11.714,-4.24 -15.278,-3.094 -3.544,1.139 -10.786,-9.099 -11.883,-10.913 -1.076,-1.799 -9.604,-4.978 -16.952,-7.002 -7.356,-2.033 -4.163,-6.687 -8.824,-12.242 -1.864,-2.214 -5.183,-2.306 -6.941,1.498 -0.512,-3.896 -5.814,-13.873 -7.066,-14.653 -2.11,-1.294 -4.395,4.549 -4.395,4.549 0.675,4.225 -4.9,-15.785 -14.238,-16.383 2.819,3.776 2.687,4.957 2.327,7.924 -0.372,2.981 -10.504,-12.67 -12.846,-11.629 1.484,-6.497 -2.931,-9.823 -5.807,-8.846 -2.869,0.985 -5.787,1.962 -8.417,-1.87 -1.047,-1.519 -5.652,-1.238 -5.744,-6.033 -0.893,2.011 -4.866,1.828 -5.977,1.111 -2.173,-1.399 -1.307,-4.781 -1.639,-5.295 -0.843,-1.279 -10.328,-7.727 -12.353,-4.331"
       fill="#fffffe"
       id="path786" /><path
       d="m 350.975,446.014 c 0.189,2.088 -2.23,7.214 0.969,10.933 -2.101,5.133 -1.855,11.953 4.86,11.039 6.715,-0.914 10.722,-2.918 14.238,-6.082 3.114,1.899 9.105,4.782 12.079,3.72 -6.392,3.361 -14.153,7.073 -11.552,9.893 2.594,2.819 22.837,-1.14 27.197,-5.007 5.034,3.186 8.718,3.509 12.304,3.228 3.579,-0.281 3.382,-3.537 3.601,-6.23 3.381,2.693 4.781,3.178 10.125,3.607 2.446,4.542 5.484,12.305 10.582,12.727 5.118,0.422 3.797,-4.81 3.789,-6.589 3.002,3.586 3.98,4.972 8.824,2.412 4.845,-2.566 6.322,-6.588 1.154,-10.835 -5.162,-4.247 -14.344,-6.047 -14.175,-3.382 -3.825,-1.146 -11.813,-7.531 -22.142,-7.299 -7.46,-4.148 -12.474,-7.945 -19.005,-6.588 -4.886,-2.925 -11.419,-6.947 -17.937,-5.962 -5.168,-3.551 -8.838,-5.724 -12.586,-5.52 -3.747,0.197 -13.281,-4.992 -12.325,5.935"
       fill="#fffffe"
       id="path788" /><path
       d="m 197.581,369.134 c -0.324,2.932 -0.992,12.987 3.558,17.395 4.563,4.402 1.968,7.524 4.344,11.82 2.364,4.282 3.586,-4.114 2.848,-5.913 -0.73,-1.801 0.092,-10.681 1.731,-13.859 -4.164,1.209 -1.829,0.386 -4.164,1.202 -2.34,0.816 -7.579,-9.217 -6.89,-11.503 0.696,-2.299 -1.125,-1.92 -1.427,0.858 z"
       fill="url(#Gradient_2)"
       id="path790"
       style="fill:url(#Gradient_2)" /><path
       d="m 240.387,400.936 c 2.911,-2.714 12.628,-4.373 19.069,-6.145 6.454,-1.772 -3.46,-6.525 -3.46,-6.525 0,0 -6.559,5.456 -7.931,5.428 -1.371,-0.028 -12.319,-0.745 -16.699,-3.656 0.703,3.269 6.496,6.201 9.246,6.272 -1.463,1.814 -0.225,4.626 -0.225,4.626 z"
       fill="url(#Gradient_3)"
       id="path792"
       style="fill:url(#Gradient_3)" /><path
       d="m 282.413,413.838 c 2.819,2.3 5.674,4.592 7.614,7.805 1.934,3.213 2.068,10.61 1.597,11.996 -0.457,1.385 1.336,-4.634 5.793,0.85 4.458,5.485 6.504,8.213 6.504,8.213 0,0 -6.082,-10.99 -6.23,-16.988 -0.14,-5.997 -1.096,-6.911 0.288,-7.854 1.386,-0.935 -1.863,0.964 -5.167,0.992 -3.297,0.028 -10.399,-5.014 -10.399,-5.014 z"
       fill="url(#Gradient_4)"
       id="path794"
       style="fill:url(#Gradient_4)" /><path
       d="m 330.246,420.813 c 0.563,1.372 -1.188,11.131 -3.375,14.886 -2.2,3.747 9.288,-5.4 12.347,-9.204 3.058,-3.804 -8.972,-5.682 -8.972,-5.682 z"
       fill="url(#Gradient_5)"
       id="path796"
       style="fill:url(#Gradient_5)" /><path
       d="m 86.741,194.787 c 1.42,3.129 12.157,6.968 17.528,5.948 -1.442,6.111 7.804,3.404 11.348,2.539 0.035,8.353 0.528,9.675 7.453,10.8 -2.742,9.717 -4.387,16.931 -0.288,26.198 1.35,3.052 4.437,1.252 5.744,0.541 -0.723,9.915 -0.211,22.43 5.197,16.672 -3.459,5.934 -5.907,19.427 0.788,18.33 0,0 5.498,14.14 14.308,7.334 2.327,8.859 3.031,7.256 7.453,5.077 1.399,4.647 17.585,18.006 19.385,6.145 0.943,2.531 1.055,12.459 11.855,13.366 -0.858,8.614 12.003,12.066 23.583,9.563 1.736,5.386 17.459,6.609 23.203,0.147 -1.969,6.933 2.412,15.202 5.934,11.982 -0.689,8.184 3.446,15.637 14.78,13.626 5.983,7.805 6.785,8.761 14.372,4.493 1.343,8.184 13.303,11.004 20.763,7.531 0.668,7.762 18.422,5.336 26.487,-0.232 -2.081,9.464 5.787,12.902 15.166,7.207 0.316,9.787 9.401,5.322 17.023,4.935 0,0 -16.96,12.6 19.539,8.712 21.158,-2.25 17.558,-5.252 21.973,-9.26 0,0 7.348,8.88 18.928,1.758 0.717,6.904 14.457,21.276 20.693,12.473 7.01,2.616 10.364,2.686 14.744,-3.115 8.059,2.855 25.433,5.014 31.987,0.5 3.621,-2.496 0.941,-3.811 -1.028,-6.047 7.432,-2.138 9.879,1.659 14.738,-6.399 -101.524,-41.301 -195.63,-92.883 -280.484,-162.597 -35.845,-7.432 -71.394,-15.68 -106.565,-25.854 -6.511,7.08 -9.837,10.603 -16.607,17.627 z"
       fill="url(#Gradient_6)"
       id="path798"
       style="fill:url(#Gradient_6)" /><path
       d="m 124.329,202.894 c -1.814,5.864 -0.956,11.489 5.948,6.729 2.327,7.481 -1.813,11.911 1.105,17.009 5.582,-3.094 2.953,-3.931 9.991,-3.305 0,0 -11.476,8.395 -7.257,15.623 5.583,9.549 9.83,-1.56 9.83,-1.56 0,0 -2.271,23.884 4.338,18.393 6.61,-5.491 8.114,-12.009 8.558,-14.976 2.545,9.204 3.93,11.7 9.407,13.26 -7.902,3.678 -14.47,4.986 -14.406,12.193 9.73,-2.883 13.984,-5.007 17.957,0.035 -3.938,8.135 -6.7,15.159 -1.934,19.645 4.768,4.479 9.395,-4.247 11.032,-8.346 -0.78,11.925 1.632,22.838 9.697,20.229 3.388,-10.006 4.296,-13.549 6.209,-15.251 0,0 2.461,12.052 4.738,13.331 2.285,1.294 9.809,-3.803 7.475,-11.636 0,0 1.588,5.273 5.084,9.52 -2.371,12.685 5.089,4.894 8.746,5.224 -2.383,10.062 0.429,13.725 8.993,12.713 2.749,-7.08 4.55,-7.045 8.859,-9.95 0.387,5.956 -2.981,14.829 3.698,16.7 5.724,-7.059 11.715,-6.427 17.185,-5.815 -0.07,8.908 -2.622,15.447 0.464,19.61 3.08,4.156 7.496,6.525 11.236,3.537 3.151,5.33 1.912,7.713 7.671,11.208 0,0 6.765,-8.972 10.491,-10.231 0,0 -3.937,-7.65 -2.812,-11.812 6.911,4.64 13.415,10.441 19.666,10.272 -7.805,6.736 -9.576,12.094 -6.94,14.401 2.637,2.313 14.182,2.01 21.431,-3.58 7.249,-5.589 11.081,-12.276 11.081,-12.276 0,0 5.225,-11.447 -7.811,-12.748 -5.569,-0.555 -9.633,-6.18 -15.258,-8.993 -5.625,-2.812 -17.198,-5.554 -19.617,-5.512 -2.412,0.028 -11.06,-15.3 -15.771,-9.929 -4.711,5.372 -8.923,-6.503 -13.051,-6.51 -4.127,-0.014 -11.707,-4.233 -15.264,-3.094 -3.558,1.139 -10.8,-9.106 -11.883,-10.905 -1.083,-1.815 -9.618,-4.986 -16.966,-7.018 -7.348,-2.017 -4.156,-6.68 -8.811,-12.234 -1.87,-2.222 -5.189,-2.299 -6.954,1.498 -0.499,-3.896 -5.8,-13.873 -7.066,-14.654 -2.103,-1.3 -4.395,4.557 -4.395,4.557 0.675,4.218 -4.886,-15.792 -14.238,-16.383 2.819,3.769 2.7,4.95 2.327,7.924 -0.372,2.974 -10.497,-12.677 -12.839,-11.637 1.477,-6.497 -2.938,-9.829 -5.814,-8.845 -2.869,0.977 -5.78,1.955 -8.409,-1.87 -1.041,-1.519 -5.654,-1.245 -5.752,-6.026 -0.893,2.011 -4.852,1.828 -5.977,1.104 -2.166,-1.407 -1.307,-4.788 -1.638,-5.302 -0.844,-1.273 -10.315,-7.713 -12.354,-4.317"
       fill="#fffffe"
       id="path800" /><path
       d="m 338.191,337.964 c 0.183,2.082 -2.243,7.215 0.964,10.92 -2.109,5.14 -1.863,11.96 4.852,11.046 6.728,-0.914 10.722,-2.911 14.252,-6.089 3.107,1.912 9.098,4.781 12.072,3.726 -6.398,3.369 -14.16,7.067 -11.559,9.887 2.602,2.826 22.837,-1.133 27.204,-5.007 5.035,3.199 8.718,3.516 12.297,3.235 3.58,-0.282 3.39,-3.53 3.608,-6.23 3.389,2.7 4.774,3.178 10.124,3.614 2.44,4.542 5.478,12.305 10.59,12.726 5.104,0.422 3.797,-4.809 3.783,-6.595 3.009,3.579 3.973,4.978 8.816,2.405 4.852,-2.552 6.328,-6.582 1.16,-10.835 -5.16,-4.233 -14.35,-6.047 -14.181,-3.382 -3.819,-1.132 -11.813,-7.531 -22.135,-7.284 -7.467,-4.149 -12.473,-7.946 -18.998,-6.596 -4.894,-2.925 -11.419,-6.94 -17.951,-5.955 -5.168,-3.551 -8.838,-5.724 -12.578,-5.534 -3.741,0.204 -13.289,-4.978 -12.32,5.948"
       fill="#fffffe"
       id="path802" /><path
       d="m 184.784,261.071 c -0.316,2.932 -0.992,12.987 3.571,17.395 4.55,4.416 1.969,7.537 4.332,11.826 2.363,4.29 3.593,-4.105 2.855,-5.906 -0.738,-1.807 0.091,-10.687 1.723,-13.866 -4.157,1.217 -1.828,0.387 -4.163,1.21 -2.328,0.816 -7.58,-9.225 -6.884,-11.51 0.689,-2.292 -1.125,-1.92 -1.434,0.851 z"
       fill="url(#Gradient_7)"
       id="path804"
       style="fill:url(#Gradient_7)" /><path
       d="m 227.597,292.88 c 2.911,-2.714 12.621,-4.366 19.076,-6.145 6.447,-1.772 -3.467,-6.518 -3.467,-6.518 0,0 -6.566,5.442 -7.937,5.414 -1.372,-0.028 -12.32,-0.738 -16.7,-3.65 0.71,3.263 6.504,6.209 9.26,6.272 -1.47,1.814 -0.232,4.627 -0.232,4.627 z"
       fill="url(#Gradient_8)"
       id="path806"
       style="fill:url(#Gradient_8)" /><path
       d="m 269.616,305.775 c 2.82,2.307 5.681,4.599 7.614,7.812 1.941,3.221 2.068,10.61 1.604,11.988 -0.45,1.4 1.329,-4.619 5.794,0.865 4.45,5.477 6.504,8.199 6.504,8.199 0,0 -6.09,-10.976 -6.231,-16.981 -0.14,-5.991 -1.103,-6.905 0.282,-7.846 1.399,-0.943 -1.864,0.949 -5.168,0.984 -3.297,0.035 -10.399,-5.021 -10.399,-5.021 z"
       fill="url(#Gradient_9)"
       id="path808"
       style="fill:url(#Gradient_9)" /><path
       d="m 317.456,312.765 c 0.563,1.363 -1.195,11.116 -3.382,14.878 -2.193,3.754 9.296,-5.4 12.347,-9.205 3.058,-3.803 -8.965,-5.673 -8.965,-5.673 z"
       fill="url(#Gradient_10)"
       id="path810"
       style="fill:url(#Gradient_10)" /><path
       d="m 538.659,365.386 c -15.721,-12.6 -27.836,-30.543 -42.012,-44.43 -8.929,-8.754 -13.457,-20.637 -25.495,-32.703 -1.567,-2.58 -1.421,-4.654 -3.065,-7.397 -6.814,-14.076 -15.919,-29.657 -29.229,-39.339 -3.91,-3.931 -7.636,-7.235 -12.093,-10.8 -12.51,-10.653 -27.008,-20.187 -42.941,-25.805 -4.774,-2.243 -9.668,-4.43 -14.618,-6.56 -7.636,-6.314 -18.352,-9.429 -23.969,-10.287 -2.925,-1.265 -5.752,-2.461 -8.452,-3.586 -4.05,-3.607 -13.212,-6.658 -18.372,-7.812 -8.881,-3.747 -5.351,-1.631 -8.726,-2.686 -7.917,-6.454 -22.571,-8.163 -26.058,-8.402 0.253,0.127 0.38,0.19 0.633,0.31 -0.31,-0.106 -0.605,-0.218 -0.908,-0.324 0.092,0 0.176,0.007 0.275,0.014 -3.157,-1.596 -4.725,-2.397 -7.847,-4.008 -4.542,-2.72 -15.469,-5.505 -22.232,-4.605 -11.461,-2.074 -18.922,-2.658 -28.793,-1.758 -7.826,0.717 -9.57,-2.334 -16.728,-1.934 -11.581,0.641 -22.106,2.511 -30.755,5.619 -3.445,0.562 -6.806,1.16 -10.068,1.757 -11.785,-1.448 -26.03,2.475 -33.624,6.497 -3.6,0.549 -6.904,1.596 -10.097,1.856 -18.204,1.435 -32.033,12.994 -41.154,26.86 -11.439,17.388 -1.617,27.661 -1.617,27.661 2.285,9.942 11.419,10.104 18.626,12.888 20.503,7.917 46.512,5.667 68.161,9.141 50.99,8.156 122.421,24.567 164.58,52.389 31.943,21.087 57.727,61.046 96.996,72.816 32.844,9.865 78.012,20.51 112.684,9.893 0,0 20.769,3.86 -3.102,-15.265 z"
       fill="url(#Gradient_11)"
       id="path812"
       style="fill:url(#Gradient_11)" /><path
       d="m 447.921,363.136 c -35.846,-9.604 -38.453,-40.837 -67.12,-59.189 -27.598,-17.662 -50.309,-46.962 -79.988,-62.009 -38.573,-19.56 -96.82,-20.496 -141.033,-23.631 -27.745,-1.969 -55.336,-6.476 -82.982,-9.718 -1.596,9.542 3.916,14.935 3.916,14.935 2.285,9.942 11.419,10.104 18.626,12.888 20.503,7.917 46.512,5.667 68.161,9.141 50.99,8.156 122.421,24.567 164.58,52.389 31.943,21.087 57.727,61.046 96.996,72.816 32.759,9.837 75.572,19.407 110.391,10.617 -27.871,-11.798 -64.328,-10.947 -91.547,-18.239 z"
       fill="url(#Gradient_12)"
       id="path814"
       style="fill:url(#Gradient_12)" /><path
       d="m 283.354,165.565 -0.132,0.397 0.106,0.035 0.438,0.146 0.109,-0.487 0.113,-0.509 h -3.207 l 2.441,0.815 0.132,-0.397 v 0.418 h 0.114 v -0.418 l -0.408,-0.09 -0.008,0.035 0.408,0.091 0.132,-0.397 -0.106,-0.035 -0.132,0.396 v 0.418 -0.418"
       fill="#3b9b62"
       id="path816" /><path
       d="m 131.719,214.946 c -1.976,-5.077 -3.832,-26.206 -4.479,-30.677 -0.331,-2.419 1.877,-9.563 4.318,-16.756 -2.441,0.478 -4.768,1.076 -7.039,1.371 -0.746,5.477 -1.005,11.601 -2.257,19.582 -2.405,15.244 1.125,20.876 4.416,26.142 0.169,0.26 0.281,0.541 0.393,0.823 1.701,0 3.073,0 4.514,0 0.043,-0.162 0.085,-0.345 0.134,-0.485 z"
       fill="url(#Gradient_13)"
       id="path818"
       style="fill:url(#Gradient_13)" /><path
       d="m 127.071,215.431 c 2.117,5.512 -5.154,15.743 -3.81,25.165 -0.149,0.309 -0.219,0.457 -0.36,0.759 1.738,0.197 3.516,0.38 5.317,0.548 1.16,-9.358 2.207,-22.26 3.367,-26.472 -1.441,0 -2.813,0 -4.514,0 z"
       fill="url(#Gradient_14)"
       id="path820"
       style="fill:url(#Gradient_14)" /><path
       d="m 251.461,208.997 c 3.762,6.342 18.71,4.943 34.425,-1.343 18.886,-7.565 39.656,-12.445 59.105,-19.694 -2.834,-1.231 -5.59,-2.391 -8.206,-3.481 l -0.204,-0.168 c -7.445,4.007 -21.839,12.1 -32.344,12.543 -11.777,0.485 -27.674,14.773 -36.864,10.983 -9.183,-3.79 -14.561,-2.615 -21.825,-16.495 -7.284,-13.887 -9.408,-20.11 -3.986,-27.584 1.75,-2.419 5.765,-4.851 10.342,-7.08 -2.37,-0.415 -4.577,-0.767 -6.686,-1.048 -7.194,4.008 -15.047,10.912 -13.353,22.985 2.806,19.997 19.596,30.382 19.596,30.382 z"
       fill="url(#Gradient_15)"
       id="path822"
       style="fill:url(#Gradient_15)" /><path
       d="m 278.074,195.047 c 5.245,-2.63 23.443,-10.849 34.89,-16.685 1.56,-0.795 2.938,-1.533 4.176,-2.229 -6.645,-2.756 -4.683,-1.427 -6.786,-1.954 -6.651,4.999 -9.4,7.565 -17.95,10.293 -9.042,2.869 -14.231,1.688 -12.867,-8.535 0.521,-3.882 2.13,-7.418 3.923,-10.336 l -0.106,-0.036 h 0.114 l 0.049,-0.056 c -2.834,-1.427 -4.247,-2.152 -7.053,-3.593 -4.465,5.484 -4.633,14.203 -4.633,14.203 7.523,11.257 0.984,21.558 6.243,18.928 z"
       fill="url(#Gradient_16)"
       id="path824"
       style="fill:url(#Gradient_16)" /><path
       d="m 283.629,165.579 -0.112,-0.07 -0.049,0.056 z"
       fill="url(#Gradient_17)"
       id="path826"
       style="fill:url(#Gradient_17)" /><path
       d="m 369.206,198.352 c -0.253,-0.211 -0.527,-0.408 -0.794,-0.619 -0.112,0.071 -0.211,0.141 -0.323,0.211 -4.627,2.918 -15.624,13.465 -29.707,21.705 -16.461,9.641 -36.275,16.805 -40.395,20.56 -0.633,-0.064 -1.294,-0.077 -1.968,-0.07 2.101,1.413 7.136,0.217 9.386,4.429 0.119,-0.077 0.239,-0.14 0.359,-0.217 21.755,-13.163 49.247,-24.512 66.958,-43.334 0.254,-0.26 0.492,-0.541 0.738,-0.816 -1.413,-0.612 -2.826,-1.23 -4.254,-1.849 z"
       fill="url(#Gradient_18)"
       id="path828"
       style="fill:url(#Gradient_18)" /><path
       d="m 210.469,223.327 c -0.724,-0.577 -1.118,-0.914 -1.118,-0.914 0,0 -8.656,-10.441 -11.243,-26.592 -2.594,-16.151 3.164,-20.616 15.496,-32.569 3.208,-3.108 6.35,-5.752 9.24,-7.945 -1.673,0.014 -3.052,-0.141 -4.289,-0.38 -0.077,0.042 -0.148,0.098 -0.24,0.155 -14.265,8.718 -28.905,22.626 -27.956,39.023 0.655,11.278 6.469,21.677 11.321,26.669 2.924,-0.513 5.857,2.229 8.789,2.553 z"
       fill="url(#Gradient_19)"
       id="path830"
       style="fill:url(#Gradient_19)" /><path
       d="m 296.019,240.139 c -10.984,0.147 -27.43,9.344 -37.696,6.721 -16.46,0.472 -28.222,-11.819 -36.105,-15.953 -5.702,-2.974 -9.879,-6.09 -11.749,-7.58 -2.932,-0.324 -5.865,-3.066 -8.789,-2.553 0.597,0.626 1.188,1.175 1.751,1.611 11.461,14.006 33.468,24.553 50.716,29.475 10.906,3.115 19.188,-0.056 28.357,-1.315 17.606,-2.412 15.335,-1.385 22.901,-5.977 -2.25,-4.212 -7.285,-3.016 -9.386,-4.429 z"
       fill="url(#Gradient_20)"
       id="path832"
       style="fill:url(#Gradient_20)" /><path
       d="m 167.831,190.245 c 0,0 2.848,-24.877 6.047,-30.72 l 0.035,-0.063 c -1.954,0.338 -3.867,0.668 -5.751,1.013 0.014,0.091 0.028,0.169 0.042,0.246 -3.994,12.227 -5.892,25.038 -7.326,37.04 -1.435,11.996 1.047,20.715 1.047,20.715 0,0 0.063,0.393 0.211,1.096 1.968,-0.155 3.515,-1.884 5.372,-2.461 -0.963,-5.772 -2.11,-15.967 0.323,-26.866 z"
       fill="url(#Gradient_21)"
       id="path834"
       style="fill:url(#Gradient_21)" /><path
       d="m 182.104,248.175 c -10.659,-14.505 -13.731,-26.149 -14.335,-29.524 -0.085,-0.471 -0.176,-0.984 -0.261,-1.54 -1.857,0.577 -3.404,2.306 -5.372,2.461 0.872,4.156 4.669,19.189 15.637,28.181 1.527,0.366 3.171,0.781 4.894,1.224 -0.183,-0.26 -0.372,-0.535 -0.563,-0.802 z"
       fill="url(#Gradient_22)"
       id="path836"
       style="fill:url(#Gradient_22)" /><path
       d="m 370.992,296.958 c -0.134,0.014 -0.274,0.028 -0.4,0.035 -7.812,4.156 -18.816,6.701 -28.308,8.67 1.532,1.244 3.079,2.538 4.641,3.874 10.56,-2.32 23.203,-1.174 33.77,-5.548 -5.118,-0.007 -5.926,-5.371 -9.703,-7.031 z"
       fill="url(#Gradient_23)"
       id="path838"
       style="fill:url(#Gradient_23)" /><path
       d="m 468.087,280.856 c -17.143,10.793 -21.228,7.791 -36.33,8.783 -19.491,1.294 -40.395,5.596 -60.765,7.319 3.777,1.66 4.585,7.024 9.703,7.031 l 0.106,-0.042 c 18.9,-0.991 37.913,-1.962 56.727,-2.728 12.038,-0.492 22.241,-11.327 33.624,-12.966 -1.567,-2.58 -1.421,-4.654 -3.065,-7.397 z"
       fill="url(#Gradient_24)"
       id="path840"
       style="fill:url(#Gradient_24)" /><path
       d="m 385.737,259.749 c 15.701,-4.423 36.583,-9.535 48.572,-21.249 0.379,-0.042 0.758,-0.14 1.167,-0.26 -2.257,-2.13 -4.563,-4.141 -7.067,-6.187 -14.252,10.469 -32.125,16.495 -49.401,20.215 -15.954,3.438 -36.345,3.248 -49.015,9.358 2.25,1.273 3.783,2.707 5.154,4.81 l 0.239,-0.113 c 16.756,-2.166 34.516,-2.116 50.351,-6.574 z"
       fill="url(#Gradient_25)"
       id="path842"
       style="fill:url(#Gradient_25)" /><path
       d="m 329.993,261.626 c -0.422,0.204 -0.865,0.387 -1.259,0.612 -3.241,1.737 -21.465,10.434 -36.597,15.553 3.276,1.069 4.838,2.151 7.931,3.22 0.408,-0.337 3.586,-2.306 4.099,-2.503 13.563,-4.95 23.73,-8.627 30.98,-12.072 -1.371,-2.103 -2.904,-3.537 -5.154,-4.81 z"
       fill="url(#Gradient_26)"
       id="path844"
       style="fill:url(#Gradient_26)" /><path
       d="m 559.374,491.97 c -16.594,-14.274 -29.385,-34.615 -44.347,-50.365 -9.436,-9.914 -14.217,-23.386 -26.923,-37.076 -1.652,-2.911 -1.498,-5.266 -3.241,-8.367 -7.192,-15.968 -16.804,-33.63 -30.852,-44.606 -4.121,-4.444 -8.059,-8.199 -12.77,-12.242 -13.211,-12.065 -28.512,-22.886 -45.337,-29.25 -5.042,-2.538 -10.21,-5.027 -15.426,-7.439 -8.065,-7.157 -19.385,-10.687 -25.306,-11.657 -3.094,-1.435 -6.082,-2.799 -8.923,-4.065 -4.289,-4.085 -13.957,-7.537 -19.406,-8.859 -9.379,-4.247 -5.639,-1.842 -9.211,-3.03 -8.36,-7.341 -23.821,-9.275 -27.506,-9.535 0.26,0.141 0.4,0.211 0.654,0.352 -0.316,-0.127 -0.633,-0.246 -0.949,-0.373 0.091,0 0.183,0.014 0.295,0.021 -3.333,-1.814 -4.985,-2.721 -8.29,-4.549 -4.788,-3.079 -16.333,-6.243 -23.463,-5.217 -12.101,-2.349 -19.983,-3.017 -30.396,-1.983 -8.283,0.802 -10.119,-2.658 -17.656,-2.201 -12.248,0.732 -23.365,2.841 -32.484,6.364 -3.635,0.639 -7.186,1.321 -10.631,1.997 -12.445,-1.646 -27.478,2.812 -35.494,7.361 -3.797,0.626 -7.291,1.814 -10.666,2.102 -19.217,1.632 -33.82,14.738 -43.446,30.453 -12.08,19.715 -1.702,31.366 -1.702,31.366 2.405,11.265 12.038,11.447 19.652,14.604 21.656,8.972 49.106,6.434 71.965,10.35 53.845,9.26 129.249,27.865 173.756,59.407 33.729,23.892 60.955,69.188 102.417,82.547 34.678,11.172 82.358,23.238 118.969,11.194 0,0 21.916,4.38 -3.283,-17.304 z"
       fill="url(#Gradient_27)"
       id="path846"
       style="fill:url(#Gradient_27)" /><path
       d="m 463.573,489.432 c -37.836,-10.892 -40.599,-46.294 -70.861,-67.093 -29.138,-20.032 -53.108,-53.24 -84.445,-70.298 -40.725,-22.184 -102.221,-23.238 -148.901,-26.796 -29.293,-2.236 -58.423,-7.341 -87.617,-11.025 -1.679,10.828 4.149,16.952 4.149,16.952 2.405,11.265 12.038,11.447 19.652,14.604 21.656,8.972 49.106,6.434 71.965,10.35 53.845,9.26 129.249,27.865 173.756,59.407 33.729,23.892 60.947,69.188 102.417,82.547 34.581,11.137 79.784,21.994 116.536,12.03 -29.411,-13.38 -67.908,-12.417 -96.651,-20.678 z"
       fill="url(#Gradient_28)"
       id="path848"
       style="fill:url(#Gradient_28)" /><path
       d="m 289.831,265.458 -0.171,0.424 0.106,0.043 0.396,0.159 0.207,-0.427 0.316,-0.657 h -3.214 l 2.189,0.882 0.171,-0.424 v 0.457 h 0.126 v -0.457 l -0.412,-0.199 -0.021,0.042 0.413,0.199 0.17,-0.424 -0.106,-0.042 -0.17,0.424 v 0.457 -0.457"
       fill="#2cab6a"
       id="path850" /><path
       d="m 129.743,321.448 c -2.096,-5.765 -4.05,-29.721 -4.724,-34.791 -0.36,-2.735 1.968,-10.835 4.542,-18.991 -2.574,0.548 -5.021,1.224 -7.425,1.554 -0.788,6.216 -1.055,13.155 -2.377,22.205 -2.545,17.275 1.181,23.66 4.662,29.637 0.168,0.288 0.288,0.611 0.407,0.927 1.8,0 3.256,0 4.775,0 0.042,-0.182 0.084,-0.386 0.14,-0.541 z"
       fill="url(#Gradient_29)"
       id="path852"
       style="fill:url(#Gradient_29)" /><path
       d="m 124.828,321.989 c 2.23,6.251 -5.434,17.853 -4.015,28.533 -0.154,0.338 -0.232,0.506 -0.379,0.858 1.835,0.225 3.706,0.422 5.611,0.626 1.224,-10.617 2.334,-25.242 3.558,-30.017 -1.519,0 -2.975,0 -4.775,0 z"
       fill="url(#Gradient_30)"
       id="path854"
       style="fill:url(#Gradient_30)" /><path
       d="m 256.165,314.698 c 3.966,7.186 19.758,5.597 36.338,-1.533 19.94,-8.571 41.863,-14.104 62.402,-22.324 -2.996,-1.385 -5.899,-2.707 -8.656,-3.938 l -0.225,-0.189 c -7.853,4.535 -23.055,13.718 -34.15,14.21 -12.438,0.548 -29.215,16.748 -38.904,12.459 -9.697,-4.296 -15.385,-2.967 -23.056,-18.703 -7.685,-15.736 -9.921,-22.788 -4.212,-31.268 1.857,-2.749 6.09,-5.491 10.934,-8.022 -2.51,-0.465 -4.844,-0.866 -7.067,-1.182 -7.593,4.535 -15.882,12.361 -14.097,26.044 2.961,22.669 20.693,34.446 20.693,34.446 z"
       fill="url(#Gradient_31)"
       id="path856"
       style="fill:url(#Gradient_31)" /><path
       d="m 284.262,298.885 c 5.534,-2.989 24.75,-12.305 36.83,-18.921 1.645,-0.901 3.107,-1.737 4.415,-2.525 -7.017,-3.122 -4.949,-1.624 -7.164,-2.214 -7.031,5.667 -9.929,8.578 -18.957,11.665 -9.541,3.269 -15.026,1.912 -13.591,-9.668 0.556,-4.395 2.25,-8.417 4.142,-11.722 l -0.106,-0.042 h 0.126 l 0.042,-0.056 c -2.988,-1.617 -4.472,-2.44 -7.445,-4.071 -4.711,6.209 -4.887,16.094 -4.887,16.094 7.945,12.769 1.047,24.448 6.595,21.46 z"
       fill="url(#Gradient_32)"
       id="path858"
       style="fill:url(#Gradient_32)" /><path
       d="m 290.126,265.479 -0.127,-0.077 -0.042,0.056 z"
       fill="url(#Gradient_33)"
       id="path860"
       style="fill:url(#Gradient_33)" /><path
       d="m 380.478,302.625 c -0.268,-0.231 -0.563,-0.464 -0.837,-0.703 -0.12,0.085 -0.232,0.162 -0.345,0.239 -4.894,3.305 -16.495,15.272 -31.359,24.609 -17.381,10.927 -38.306,19.055 -42.652,23.309 -0.668,-0.077 -1.364,-0.091 -2.074,-0.084 2.201,1.61 7.53,0.253 9.907,5.027 0.119,-0.091 0.239,-0.169 0.373,-0.253 22.971,-14.92 51.996,-27.788 70.699,-49.12 0.267,-0.296 0.513,-0.612 0.774,-0.921 -1.491,-0.704 -2.988,-1.407 -4.486,-2.103 z"
       fill="url(#Gradient_34)"
       id="path862"
       style="fill:url(#Gradient_34)" /><path
       d="m 212.881,330.94 c -0.76,-0.64 -1.175,-1.041 -1.175,-1.041 0,0 -9.141,-11.826 -11.875,-30.135 -2.728,-18.317 3.347,-23.372 16.355,-36.935 3.388,-3.523 6.7,-6.497 9.758,-9 -1.764,0.027 -3.226,-0.155 -4.527,-0.43 -0.078,0.057 -0.155,0.12 -0.246,0.176 -15.062,9.879 -30.524,25.657 -29.525,44.227 0.697,12.811 6.834,24.581 11.954,30.256 3.093,-0.598 6.18,2.509 9.281,2.882 z"
       fill="url(#Gradient_35)"
       id="path864"
       style="fill:url(#Gradient_35)" /><path
       d="m 303.211,349.995 c -11.602,0.176 -28.969,10.589 -39.804,7.629 -17.381,0.527 -29.799,-13.395 -38.123,-18.084 -6.019,-3.383 -10.421,-6.905 -12.403,-8.6 -3.101,-0.373 -6.188,-3.48 -9.281,-2.882 0.632,0.695 1.251,1.314 1.841,1.82 12.109,15.87 35.339,27.823 53.558,33.413 11.517,3.522 20.257,-0.07 29.939,-1.491 18.577,-2.735 16.186,-1.589 24.18,-6.778 -2.377,-4.774 -7.706,-3.417 -9.907,-5.027 z"
       fill="url(#Gradient_36)"
       id="path866"
       style="fill:url(#Gradient_36)" /><path
       d="m 167.866,293.442 c 0,0 3.01,-28.202 6.392,-34.832 l 0.021,-0.07 c -2.046,0.379 -4.078,0.766 -6.061,1.152 0.014,0.099 0.028,0.183 0.035,0.282 -4.211,13.865 -6.215,28.378 -7.727,41.99 -1.519,13.592 1.097,23.471 1.097,23.471 0,0 0.07,0.45 0.231,1.252 2.075,-0.176 3.707,-2.138 5.668,-2.785 -1.005,-6.553 -2.229,-18.12 0.344,-30.46 z"
       fill="url(#Gradient_37)"
       id="path868"
       style="fill:url(#Gradient_37)" /><path
       d="m 182.928,359.107 c -11.25,-16.446 -14.491,-29.636 -15.132,-33.468 -0.084,-0.528 -0.176,-1.119 -0.274,-1.737 -1.961,0.647 -3.593,2.609 -5.668,2.785 0.915,4.71 4.93,21.754 16.503,31.935 1.618,0.422 3.354,0.9 5.175,1.399 -0.197,-0.302 -0.393,-0.611 -0.604,-0.914 z"
       fill="url(#Gradient_38)"
       id="path870"
       style="fill:url(#Gradient_38)" /><path
       d="m 382.354,414.408 c -0.14,0.007 -0.281,0.028 -0.421,0.042 -8.247,4.711 -19.864,7.587 -29.883,9.83 1.617,1.413 3.256,2.883 4.894,4.394 11.159,-2.636 24.504,-1.336 35.656,-6.293 -5.401,-0.013 -6.258,-6.082 -10.246,-7.973 z"
       fill="url(#Gradient_39)"
       id="path872"
       style="fill:url(#Gradient_39)" /><path
       d="m 484.863,396.162 c -18.091,12.234 -22.401,8.824 -38.348,9.956 -20.588,1.463 -42.652,6.336 -64.161,8.29 3.988,1.891 4.845,7.96 10.246,7.973 l 0.112,-0.042 c 19.955,-1.139 40.029,-2.229 59.906,-3.093 12.698,-0.556 23.471,-12.847 35.486,-14.717 -1.652,-2.911 -1.498,-5.266 -3.241,-8.367 z"
       fill="url(#Gradient_40)"
       id="path874"
       style="fill:url(#Gradient_40)" /><path
       d="m 397.929,372.228 c 16.566,-5.014 38.615,-10.821 51.271,-24.083 0.408,-0.048 0.817,-0.154 1.245,-0.294 -2.39,-2.419 -4.816,-4.698 -7.46,-7.025 -15.047,11.876 -33.919,18.703 -52.158,22.922 -16.86,3.896 -38.383,3.691 -51.757,10.61 2.37,1.449 4.001,3.073 5.45,5.449 l 0.252,-0.126 c 17.677,-2.454 36.437,-2.398 53.157,-7.453 z"
       fill="url(#Gradient_41)"
       id="path876"
       style="fill:url(#Gradient_41)" /><path
       d="m 339.07,374.358 c -0.45,0.225 -0.907,0.45 -1.329,0.682 -3.417,1.976 -22.654,11.848 -38.637,17.642 3.454,1.209 5.113,2.446 8.389,3.649 0.408,-0.38 3.776,-2.609 4.318,-2.841 14.315,-5.618 25.044,-9.773 32.709,-13.683 -1.449,-2.376 -3.08,-4 -5.45,-5.449 z"
       fill="url(#Gradient_42)"
       id="path878"
       style="fill:url(#Gradient_42)" /></g></svg>
